<svg id="Layer_1" data-name="Layer 1" xmlns="http://www.w3.org/2000/svg" xmlns:xlink="http://www.w3.org/1999/xlink" viewBox="0 0 223.85 244.42"><defs><style>.cls-1{fill:#fff;}.cls-2{fill:#39b54a;}.cls-3{fill:none;stroke:#fff;stroke-miterlimit:10;stroke-width:2px;}.cls-4{fill:url(#radial-gradient);}.cls-5{fill:url(#radial-gradient-2);}.cls-6{fill:url(#radial-gradient-3);}.cls-7{fill:url(#radial-gradient-4);}.cls-8{fill:url(#radial-gradient-5);}.cls-9{fill:url(#radial-gradient-6);}</style><radialGradient id="radial-gradient" cx="134.25" cy="187.59" r="22.9" gradientTransform="matrix(0.36, -0.93, 1.08, 0.42, -118.62, 208.6)" gradientUnits="userSpaceOnUse"><stop offset="0.22" stop-color="#1b1464"/><stop offset="0.24" stop-color="#1c206e"/><stop offset="0.31" stop-color="#20458d"/><stop offset="0.38" stop-color="#2265a7"/><stop offset="0.46" stop-color="#257ebd"/><stop offset="0.55" stop-color="#2792cd"/><stop offset="0.66" stop-color="#28a0d9"/><stop offset="0.78" stop-color="#29a9e0"/><stop offset="1" stop-color="#29abe2"/></radialGradient><radialGradient id="radial-gradient-2" cx="105.9" cy="203.47" r="21.37" gradientTransform="matrix(0.36, -0.93, 1.08, 0.42, -140.58, 204.26)" xlink:href="#radial-gradient"/><radialGradient id="radial-gradient-3" cx="100.67" cy="163.4" r="23.87" gradientTransform="matrix(0.39, -1.01, 1.17, 0.46, -136.55, 192.29)" xlink:href="#radial-gradient"/><radialGradient id="radial-gradient-4" cx="74.11" cy="187.41" r="21.02" gradientTransform="matrix(0.39, -1.01, 1.17, 0.46, -164.09, 192.02)" xlink:href="#radial-gradient"/><radialGradient id="radial-gradient-5" cx="132.56" cy="211.93" r="21.02" gradientTransform="matrix(0.41, -0.95, 1.09, 0.47, -135.73, 214.93)" xlink:href="#radial-gradient"/><radialGradient id="radial-gradient-6" cx="93.04" cy="220.98" r="22.2" gradientTransform="matrix(0.42, -0.94, 1.24, 0.42, -162.8, 236.72)" xlink:href="#radial-gradient"/></defs><title>blueberry</title><path class="cls-1" d="M112.41,185.27Z" transform="translate(-29.14 -21.33)"/><path class="cls-2" d="M31,43.49S12.94,201.14,141.29,153.16l-24.15-25-37.07,3.34,34.36-6.15L93.78,104l-34.55,4.37,9.33-1.95,23.58-4.11L72.29,81.7l31.77,29.46,10.68-24.37-8.11,26.76,39,36.15.84-6.3C148.93,123.1,155.06-4,31,43.49Z" transform="translate(-29.14 -21.33)"/><path class="cls-3" d="M31,43.49S12.94,201.14,141.29,153.16l-24.15-25-37.07,3.34,34.36-6.15L93.78,104l-34.55,4.37,9.33-1.95,23.58-4.11L72.29,81.7l31.77,29.46,10.68-24.37-8.11,26.76,39,36.15.84-6.3C148.93,123.1,155.06-4,31,43.49Z" transform="translate(-29.14 -21.33)"/><circle class="cls-4" cx="131.98" cy="163.94" r="21.74"/><circle class="cls-5" cx="116.89" cy="192.59" r="20.29"/><circle class="cls-6" cx="93.14" cy="166.87" r="24.53"/><path id="leaf" class="cls-1" d="M125.77,265.6" transform="translate(-29.14 -21.33)"/><path class="cls-2" d="M228.5,22.4S70.89,40.86,147,154.84l18.82-29.23L154.05,90.29l13.84,32,16.11-25L171.84,64.69l4,8.64,9.39,22,15.47-24L179.33,109l26.16,4.82L177.6,112l-26.28,46.22,6.32-.63C178,155.4,303.11,132.29,228.5,22.4Z" transform="translate(-29.14 -21.33)"/><path class="cls-3" d="M228.5,22.4S70.89,40.86,147,154.84l18.82-29.23L154.05,90.29l13.84,32,16.11-25L171.84,64.69l4,8.64,9.39,22,15.47-24L179.33,109l26.16,4.82L177.6,112l-26.28,46.22,6.32-.63C178,155.4,303.11,132.29,228.5,22.4Z" transform="translate(-29.14 -21.33)"/><circle class="cls-7" cx="83.27" cy="204.1" r="21.6"/><circle class="cls-8" cx="150.02" cy="191.57" r="20.57"/><ellipse class="cls-9" cx="150.55" cy="244.51" rx="24.31" ry="21.22" transform="matrix(1, -0.07, 0.07, 1, -44.99, -10.84)"/></svg>