<svg xmlns="http://www.w3.org/2000/svg" xmlns:xlink="http://www.w3.org/1999/xlink" viewBox="0 0 63.46 46.76"><defs><style>.cls-1,.cls-2{fill:none;}.cls-2{stroke:#333;stroke-miterlimit:10;stroke-width:2px;}.cls-3{fill:#333;}.cls-4{isolation:isolate;}.cls-5{clip-path:url(#clip-path);}.cls-6{fill:#f7931e;}.cls-7{font-size:14px;font-family:Cone;}</style><clipPath id="clip-path"><rect class="cls-1" x="33.24" y="18.61" width="18.23" height="12.91"/></clipPath></defs><title>Asset 7</title><g id="Layer_2" data-name="Layer 2"><g id="Layer_1-2" data-name="Layer 1"><path class="cls-2" d="M16.74,19.62H27.36a1.81,1.81,0,0,1,1.81,1.81v2A7.14,7.14,0,0,1,22,30.52H16.61A3.66,3.66,0,0,1,13,26.86V23.4A3.78,3.78,0,0,1,16.74,19.62Z"/><rect class="cls-3" x="29.17" y="20.71" width="5.12" height="2.06"/><g class="cls-4"><g class="cls-5"><path class="cls-3" d="M46.81,29.52a2.65,2.65,0,0,0,2.65-2.65V23.4a2.78,2.78,0,0,0-2.78-2.78H36.05a.81.81,0,0,0-.81.81v1.95a6.14,6.14,0,0,0,6.15,6.14h5.42M36.05,18.61H46.68a4.8,4.8,0,0,1,4.79,4.79v3.47a4.66,4.66,0,0,1-4.66,4.65H41.39a8.16,8.16,0,0,1-8.15-8.14V21.43a2.82,2.82,0,0,1,2.81-2.82"/></g></g><path class="cls-6" d="M15.76,2.91h4.3a1,1,0,0,1,1,1v9.5a1.07,1.07,0,0,1-1.07,1.07H13.57a1,1,0,0,1-1-1V6.09A3.18,3.18,0,0,1,15.76,2.91Z"/><path class="cls-6" d="M25.69,0h4.21a1,1,0,0,1,1,1V13.41a1,1,0,0,1-1,1H23.53a1,1,0,0,1-1-1V3.16A3.16,3.16,0,0,1,25.69,0Z"/><path class="cls-6" d="M43.37,2.91h4.49a3,3,0,0,1,3,3v7.66a.89.89,0,0,1-.89.89H43.15a.83.83,0,0,1-.83-.83V4a1.05,1.05,0,0,1,1.05-1.05Z"/><path class="cls-6" d="M33.38,0h4.24a3.18,3.18,0,0,1,3.18,3.18V13.44a1,1,0,0,1-1,1H33.47a1,1,0,0,1-1-1V.94A.94.94,0,0,1,33.38,0Z"/><text class="cls-7" transform="translate(1.26 44.1)">pumpkinhead</text></g></g></svg>